<svg id="my-svg" width="100%" xmlns="http://www.w3.org/2000/svg" xmlns:xlink="http://www.w3.org/1999/xlink" class="flowchart" style="max-width: 1684.05px; background-color: white;" viewBox="0 0.05000019073486328 1684.046875 523.4000244140625" role="graphics-document document" aria-roledescription="flowchart-v2"><style>#my-svg{font-family:"trebuchet ms",verdana,arial,sans-serif;font-size:16px;fill:#333;}@keyframes edge-animation-frame{from{stroke-dashoffset:0;}}@keyframes dash{to{stroke-dashoffset:0;}}#my-svg .edge-animation-slow{stroke-dasharray:9,5!important;stroke-dashoffset:900;animation:dash 50s linear infinite;stroke-linecap:round;}#my-svg .edge-animation-fast{stroke-dasharray:9,5!important;stroke-dashoffset:900;animation:dash 20s linear infinite;stroke-linecap:round;}#my-svg .error-icon{fill:#552222;}#my-svg .error-text{fill:#552222;stroke:#552222;}#my-svg .edge-thickness-normal{stroke-width:1px;}#my-svg .edge-thickness-thick{stroke-width:3.5px;}#my-svg .edge-pattern-solid{stroke-dasharray:0;}#my-svg .edge-thickness-invisible{stroke-width:0;fill:none;}#my-svg .edge-pattern-dashed{stroke-dasharray:3;}#my-svg .edge-pattern-dotted{stroke-dasharray:2;}#my-svg .marker{fill:#333333;stroke:#333333;}#my-svg .marker.cross{stroke:#333333;}#my-svg svg{font-family:"trebuchet ms",verdana,arial,sans-serif;font-size:16px;}#my-svg p{margin:0;}#my-svg .label{font-family:"trebuchet ms",verdana,arial,sans-serif;color:#333;}#my-svg .cluster-label text{fill:#333;}#my-svg .cluster-label span{color:#333;}#my-svg .cluster-label span p{background-color:transparent;}#my-svg .label text,#my-svg span{fill:#333;color:#333;}#my-svg .node rect,#my-svg .node circle,#my-svg .node ellipse,#my-svg .node polygon,#my-svg .node path{fill:#ECECFF;stroke:#9370DB;stroke-width:1px;}#my-svg .rough-node .label text,#my-svg .node .label text,#my-svg .image-shape .label,#my-svg .icon-shape .label{text-anchor:middle;}#my-svg .node .katex path{fill:#000;stroke:#000;stroke-width:1px;}#my-svg .rough-node .label,#my-svg .node .label,#my-svg .image-shape .label,#my-svg .icon-shape .label{text-align:center;}#my-svg .node.clickable{cursor:pointer;}#my-svg .root .anchor path{fill:#333333!important;stroke-width:0;stroke:#333333;}#my-svg .arrowheadPath{fill:#333333;}#my-svg .edgePaths .path{stroke:#333333;stroke-width:1px;}#my-svg .flowchart-link{stroke:#333333;fill:none;}#my-svg .edgeLabel{background-color:rgba(232,232,232, 0.8);text-align:center;}#my-svg .edgeLabel p{background-color:rgba(232,232,232, 0.8);}#my-svg .edgeLabel rect{opacity:0.5;background-color:rgba(232,232,232, 0.8);fill:rgba(232,232,232, 0.8);}#my-svg .labelBkg{background-color:rgba(232, 232, 232, 0.5);}#my-svg .cluster rect{fill:#ffffde;stroke:#aaaa33;stroke-width:1px;}#my-svg .cluster text{fill:#333;}#my-svg .cluster span{color:#333;}#my-svg .node .collapsed-indicator{fill:#aaaa33;stroke:none;opacity:0.6;}#my-svg .node .collapsed-separator{stroke:#aaaa33;stroke-width:0.75px;}#my-svg div.mermaidTooltip{position:absolute;text-align:center;max-width:200px;padding:2px;font-family:"trebuchet ms",verdana,arial,sans-serif;font-size:12px;background:hsl(80, 100%, 96.2745098039%);border:1px solid #aaaa33;border-radius:2px;pointer-events:none;z-index:100;}#my-svg .flowchartTitleText{text-anchor:middle;font-size:18px;fill:#333;}#my-svg rect.text{fill:none;stroke-width:0;}#my-svg .icon-shape,#my-svg .image-shape{background-color:rgba(232,232,232, 0.8);text-align:center;}#my-svg .icon-shape p,#my-svg .image-shape p{background-color:rgba(232,232,232, 0.8);padding:2px;}#my-svg .icon-shape .label rect,#my-svg .image-shape .label rect{opacity:0.5;background-color:rgba(232,232,232, 0.8);fill:rgba(232,232,232, 0.8);}#my-svg .label-icon{display:inline-block;height:1em;overflow:visible;vertical-align:-0.125em;}#my-svg .node .label-icon path{fill:currentColor;stroke:revert;stroke-width:revert;}#my-svg .node .neo-node{stroke:#9370DB;}#my-svg [data-look="neo"].node rect,#my-svg [data-look="neo"].cluster rect,#my-svg [data-look="neo"].node polygon{stroke:#9370DB;filter:drop-shadow(1px 2px 2px rgba(185, 185, 185, 1));}#my-svg [data-look="neo"].swimlane.cluster rect{filter:none;}#my-svg [data-look="neo"].node path{stroke:#9370DB;stroke-width:1px;}#my-svg [data-look="neo"].node .outer-path{filter:drop-shadow(1px 2px 2px rgba(185, 185, 185, 1));}#my-svg [data-look="neo"].node .neo-line path{stroke:#9370DB;filter:none;}#my-svg [data-look="neo"].node circle{stroke:#9370DB;filter:drop-shadow(1px 2px 2px rgba(185, 185, 185, 1));}#my-svg [data-look="neo"].node circle .state-start{fill:#000000;}#my-svg [data-look="neo"].icon-shape .icon{fill:#9370DB;filter:drop-shadow(1px 2px 2px rgba(185, 185, 185, 1));}#my-svg [data-look="neo"].icon-shape .icon-neo path{stroke:#9370DB;filter:drop-shadow(1px 2px 2px rgba(185, 185, 185, 1));}#my-svg :root{--mermaid-font-family:"trebuchet ms",verdana,arial,sans-serif;}#my-svg .leaf&gt;*{fill:rgb(221, 245, 234)!important;stroke:rgb(6, 122, 82)!important;color:rgb(23, 38, 31)!important;}#my-svg .leaf span{fill:rgb(221, 245, 234)!important;stroke:rgb(6, 122, 82)!important;color:rgb(23, 38, 31)!important;}#my-svg .leaf tspan{fill:rgb(23, 38, 31)!important;}#my-svg .sun&gt;*{fill:rgb(253, 244, 221)!important;stroke:rgb(201, 141, 18)!important;color:rgb(23, 38, 31)!important;}#my-svg .sun span{fill:rgb(253, 244, 221)!important;stroke:rgb(201, 141, 18)!important;color:rgb(23, 38, 31)!important;}#my-svg .sun tspan{fill:rgb(23, 38, 31)!important;}#my-svg .core&gt;*{fill:rgb(6, 122, 82)!important;stroke:rgb(11, 61, 43)!important;color:rgb(255, 255, 255)!important;}#my-svg .core span{fill:rgb(6, 122, 82)!important;stroke:rgb(11, 61, 43)!important;color:rgb(255, 255, 255)!important;}#my-svg .core tspan{fill:rgb(255, 255, 255)!important;}#my-svg .muted&gt;*{fill:rgb(242, 247, 244)!important;stroke:rgb(91, 107, 99)!important;color:rgb(23, 38, 31)!important;}#my-svg .muted span{fill:rgb(242, 247, 244)!important;stroke:rgb(91, 107, 99)!important;color:rgb(23, 38, 31)!important;}#my-svg .muted tspan{fill:rgb(23, 38, 31)!important;}</style><g><marker id="my-svg_flowchart-v2-pointEnd" class="marker flowchart-v2" viewBox="0 0 10 10" refX="5" refY="5" markerUnits="userSpaceOnUse" markerWidth="8" markerHeight="8" orient="auto"><path d="M 0 0 L 10 5 L 0 10 z" class="arrowMarkerPath" style="stroke-width: 1; stroke-dasharray: 1, 0;"/></marker><marker id="my-svg_flowchart-v2-pointStart" class="marker flowchart-v2" viewBox="0 0 10 10" refX="4.5" refY="5" markerUnits="userSpaceOnUse" markerWidth="8" markerHeight="8" orient="auto"><path d="M 0 5 L 10 10 L 10 0 z" class="arrowMarkerPath" style="stroke-width: 1; stroke-dasharray: 1, 0;"/></marker><marker id="my-svg_flowchart-v2-pointEnd-margin" class="marker flowchart-v2" viewBox="0 0 11.5 14" refX="11.5" refY="7" markerUnits="userSpaceOnUse" markerWidth="10.5" markerHeight="14" orient="auto"><path d="M 0 0 L 11.5 7 L 0 14 z" class="arrowMarkerPath" style="stroke-width: 0; stroke-dasharray: 1, 0;"/></marker><marker id="my-svg_flowchart-v2-pointStart-margin" class="marker flowchart-v2" viewBox="0 0 11.5 14" refX="1" refY="7" markerUnits="userSpaceOnUse" markerWidth="11.5" markerHeight="14" orient="auto"><polygon points="0,7 11.5,14 11.5,0" class="arrowMarkerPath" style="stroke-width: 0; stroke-dasharray: 1, 0;"/></marker><marker id="my-svg_flowchart-v2-circleEnd" class="marker flowchart-v2" viewBox="0 0 10 10" refX="11" refY="5" markerUnits="userSpaceOnUse" markerWidth="11" markerHeight="11" orient="auto"><circle cx="5" cy="5" r="5" class="arrowMarkerPath" style="stroke-width: 1; stroke-dasharray: 1, 0;"/></marker><marker id="my-svg_flowchart-v2-circleStart" class="marker flowchart-v2" viewBox="0 0 10 10" refX="-1" refY="5" markerUnits="userSpaceOnUse" markerWidth="11" markerHeight="11" orient="auto"><circle cx="5" cy="5" r="5" class="arrowMarkerPath" style="stroke-width: 1; stroke-dasharray: 1, 0;"/></marker><marker id="my-svg_flowchart-v2-circleEnd-margin" class="marker flowchart-v2" viewBox="0 0 10 10" refY="5" refX="12.25" markerUnits="userSpaceOnUse" markerWidth="14" markerHeight="14" orient="auto"><circle cx="5" cy="5" r="5" class="arrowMarkerPath" style="stroke-width: 0; stroke-dasharray: 1, 0;"/></marker><marker id="my-svg_flowchart-v2-circleStart-margin" class="marker flowchart-v2" viewBox="0 0 10 10" refX="-2" refY="5" markerUnits="userSpaceOnUse" markerWidth="14" markerHeight="14" orient="auto"><circle cx="5" cy="5" r="5" class="arrowMarkerPath" style="stroke-width: 0; stroke-dasharray: 1, 0;"/></marker><marker id="my-svg_flowchart-v2-crossEnd" class="marker cross flowchart-v2" viewBox="0 0 11 11" refX="12" refY="5.2" markerUnits="userSpaceOnUse" markerWidth="11" markerHeight="11" orient="auto"><path d="M 1,1 l 9,9 M 10,1 l -9,9" class="arrowMarkerPath" style="stroke-width: 2; stroke-dasharray: 1, 0;"/></marker><marker id="my-svg_flowchart-v2-crossStart" class="marker cross flowchart-v2" viewBox="0 0 11 11" refX="-1" refY="5.2" markerUnits="userSpaceOnUse" markerWidth="11" markerHeight="11" orient="auto"><path d="M 1,1 l 9,9 M 10,1 l -9,9" class="arrowMarkerPath" style="stroke-width: 2; stroke-dasharray: 1, 0;"/></marker><marker id="my-svg_flowchart-v2-crossEnd-margin" class="marker cross flowchart-v2" viewBox="0 0 15 15" refX="17.7" refY="7.5" markerUnits="userSpaceOnUse" markerWidth="12" markerHeight="12" orient="auto"><path d="M 1,1 L 14,14 M 1,14 L 14,1" class="arrowMarkerPath" style="stroke-width: 2.5;"/></marker><marker id="my-svg_flowchart-v2-crossStart-margin" class="marker cross flowchart-v2" viewBox="0 0 15 15" refX="-3.5" refY="7.5" markerUnits="userSpaceOnUse" markerWidth="12" markerHeight="12" orient="auto"><path d="M 1,1 L 14,14 M 1,14 L 14,1" class="arrowMarkerPath" style="stroke-width: 2.5; stroke-dasharray: 1, 0;"/></marker><g class="root"><g class="clusters"/><g class="edgePaths"><path d="M206.881,248.45L221.234,248.367C235.587,248.283,264.294,248.117,282.147,248.033C300,247.95,307,247.95,310.5,247.95L314,247.95" id="my-svg-L_start_off_0" class="edge-thickness-normal edge-pattern-solid edge-thickness-normal edge-pattern-solid flowchart-link" style=";" data-edge="true" data-et="edge" data-id="L_start_off_0" data-points="W3sieCI6MjA2Ljg4MDYwNDgyNjg0MzgsInkiOjI0OC40NTAwMDAwMDI5ODAyM30seyJ4IjoyOTMsInkiOjI0Ny45NTAwMDAwMDI5ODAyM30seyJ4IjozMTgsInkiOjI0Ny45NTAwMDAwMDI5ODAyM31d" data-look="classic" marker-end="url(#my-svg_flowchart-v2-pointEnd)"/><path d="M408.703,233.752L428.042,227.697C447.38,221.643,486.057,209.534,524.071,201.578C562.085,193.622,599.436,189.818,618.111,187.917L636.786,186.015" id="my-svg-L_off_timed_0" class="edge-thickness-normal edge-pattern-solid edge-thickness-normal edge-pattern-solid flowchart-link" style=";" data-edge="true" data-et="edge" data-id="L_off_timed_0" data-points="W3sieCI6NDA4LjcwMzEyNSwieSI6MjMzLjc1MTUzODIyMjM2NTN9LHsieCI6NTI0LjczNDM3NSwieSI6MTk3LjQyNTAwMDAwMjYwNzd9LHsieCI6NjQwLjc2NTYyNSwieSI6MTg1LjYwOTk5NTk0NDUyOH1d" data-look="classic" marker-end="url(#my-svg_flowchart-v2-pointEnd)"/><path d="M391.637,274.95L413.82,296.125C436.003,317.3,480.369,359.65,541.057,380.825C601.745,402,678.755,402,754.236,402C829.716,402,903.667,402,960.456,391.308C1017.245,380.617,1056.873,359.233,1076.687,348.541L1096.501,337.85" id="my-svg-L_off_unlimited_0" class="edge-thickness-normal edge-pattern-solid edge-thickness-normal edge-pattern-solid flowchart-link" style=";" data-edge="true" data-et="edge" data-id="L_off_unlimited_0" data-points="W3sieCI6MzkxLjYzNjc2ODE5NjA2NTc2LCJ5IjoyNzQuOTUwMDAwMDAyOTgwMjN9LHsieCI6NTI0LjczNDM3NSwieSI6NDAyLjAwMDAwMDAwMzcyNTN9LHsieCI6NzU1Ljc2NTYyNSwieSI6NDAyLjAwMDAwMDAwMzcyNTN9LHsieCI6OTc3LjYxNzE4NzUsInkiOjQwMi4wMDAwMDAwMDM3MjUzfSx7IngiOjExMDAuMDIxNjkzNTM5MzAzNywieSI6MzM1Ljk1MDAwMDAwMjk4MDIzfV0=" data-look="classic" marker-end="url(#my-svg_flowchart-v2-pointEnd)"/><path d="M640.766,160.46L621.427,158.2C602.089,155.94,563.411,151.42,524.928,161.148C486.444,170.876,448.153,194.851,429.008,206.839L409.862,218.827" id="my-svg-L_timed_off_0" class="edge-thickness-normal edge-pattern-solid edge-thickness-normal edge-pattern-solid flowchart-link" style=";" data-edge="true" data-et="edge" data-id="L_timed_off_0" data-points="W3sieCI6NjQwLjc2NTYyNSwieSI6MTYwLjQ2MDI1OTcwNzM2MTY0fSx7IngiOjUyNC43MzQzNzUsInkiOjE0Ni45MDAwMDAwMDIyMzUxN30seyJ4Ijo0MDYuNDcyMTU1NjQ2NjM5LCJ5IjoyMjAuOTUwMDAwMDAyOTgwMjN9XQ==" data-look="classic" marker-end="url(#my-svg_flowchart-v2-pointEnd)"/><path d="M1084.469,315.469L1066.66,319.224C1048.852,322.98,1013.234,330.49,958.451,334.245C903.667,338,829.716,338,754.236,338C678.755,338,601.745,338,544.483,327.534C487.222,317.068,449.709,296.137,430.953,285.671L412.196,275.205" id="my-svg-L_unlimited_off_0" class="edge-thickness-normal edge-pattern-solid edge-thickness-normal edge-pattern-solid flowchart-link" style=";" data-edge="true" data-et="edge" data-id="L_unlimited_off_0" data-points="W3sieCI6MTA4NC40Njg3NSwieSI6MzE1LjQ2OTM2Njc1MTU4MDc2fSx7IngiOjk3Ny42MTcxODc1LCJ5IjozMzguMDAwMDAwMDAzNzI1M30seyJ4Ijo3NTUuNzY1NjI1LCJ5IjozMzguMDAwMDAwMDAzNzI1M30seyJ4Ijo1MjQuNzM0Mzc1LCJ5IjozMzguMDAwMDAwMDAzNzI1M30seyJ4Ijo0MDguNzAzMTI1LCJ5IjoyNzMuMjU1NzE5NjEzOTc1M31d" data-look="classic" marker-end="url(#my-svg_flowchart-v2-pointEnd)"/><path d="M813.463,224.9L840.822,249.083C868.181,273.267,922.899,321.633,967.443,339.369C1011.986,357.104,1046.355,344.207,1063.539,337.759L1080.724,331.311" id="my-svg-L_timed_unlimited_0" class="edge-thickness-normal edge-pattern-solid edge-thickness-normal edge-pattern-solid flowchart-link" style=";" data-edge="true" data-et="edge" data-id="L_timed_unlimited_0" data-points="W3sieCI6ODEzLjQ2Mjg2OTcwODg5MzUsInkiOjIyNC45MDAwMDAwMDIyMzUxN30seyJ4Ijo5NzcuNjE3MTg3NSwieSI6MzcwLjAwMDAwMDAwMzcyNTN9LHsieCI6MTA4NC40Njg3NSwieSI6MzI5LjkwNTkwMTEyMjk0MzkzfV0=" data-look="classic" marker-end="url(#my-svg_flowchart-v2-pointEnd)"/><path d="M1084.469,274.844L1066.66,270.362C1048.852,265.879,1013.234,256.915,978.25,246.699C943.265,236.484,908.912,225.018,891.736,219.284L874.56,213.551" id="my-svg-L_unlimited_timed_0" class="edge-thickness-normal edge-pattern-solid edge-thickness-normal edge-pattern-solid flowchart-link" style=";" data-edge="true" data-et="edge" data-id="L_unlimited_timed_0" data-points="W3sieCI6MTA4NC40Njg3NSwieSI6Mjc0Ljg0NDA1Njc0NjgzMDN9LHsieCI6OTc3LjYxNzE4NzUsInkiOjI0Ny45NTAwMDAwMDI5ODAyM30seyJ4Ijo4NzAuNzY1NjI1LCJ5IjoyMTIuMjg0ODk5ODE1OTgxOTZ9XQ==" data-look="classic" marker-end="url(#my-svg_flowchart-v2-pointEnd)"/><path d="M870.766,138.164L878.416,135.786C886.066,133.409,901.366,128.655,909.016,142.944C916.666,157.233,916.666,190.567,909.652,205.054C902.639,219.541,888.612,215.182,881.599,213.003L874.585,210.823" id="my-svg-L_timed_timed_0" class="edge-thickness-normal edge-pattern-solid edge-thickness-normal edge-pattern-solid flowchart-link" style=";" data-edge="true" data-et="edge" data-id="L_timed_timed_0" data-points="W3sieCI6ODcwLjc2NTYyNSwieSI6MTM4LjE2MzUxNzcxNTEwMDN9LHsieCI6OTE2LjY2NTYyNSwieSI6MTIzLjkwMDAwMDAwMjIzNTE3fSx7IngiOjkxNi42NjU2MjUsInkiOjIyMy45MDAwMDAwMDIyMzUxN30seyJ4Ijo4NzAuNzY1NjI1LCJ5IjoyMDkuNjM2NDgyMjg5MzcwMDR9XQ==" data-look="classic" marker-end="url(#my-svg_flowchart-v2-pointEnd)"/><path d="M408.703,224.327L412.753,222.217C416.803,220.107,424.903,215.888,428.953,225.872C433.003,235.856,433.003,260.044,429.544,270.336C426.086,280.628,419.168,277.025,415.709,275.223L412.251,273.421" id="my-svg-L_off_off_0" class="edge-thickness-normal edge-pattern-dotted edge-thickness-normal edge-pattern-solid flowchart-link" style=";" data-edge="true" data-et="edge" data-id="L_off_off_0" data-points="W3sieCI6NDA4LjcwMzEyNSwieSI6MjI0LjMyNjUzMzE2NDcwMDR9LHsieCI6NDMzLjAwMzEyNSwieSI6MjExLjY2ODc1MDAwMjk4MDIzfSx7IngiOjQzMy4wMDMxMjUsInkiOjI4NC4yMzEyNTAwMDI5ODAyM30seyJ4Ijo0MDguNzAzMTI1LCJ5IjoyNzEuNTczNDY2ODQxMjYwMX1d" data-look="classic" marker-end="url(#my-svg_flowchart-v2-pointEnd)"/><path d="M1260.125,261.227L1265.975,258.847C1271.825,256.468,1283.525,251.709,1289.375,265.996C1295.225,280.283,1295.225,313.617,1289.993,328.155C1284.76,342.693,1274.295,338.437,1269.063,336.309L1263.83,334.18" id="my-svg-L_unlimited_unlimited_0" class="edge-thickness-normal edge-pattern-dotted edge-thickness-normal edge-pattern-solid flowchart-link" style=";" data-edge="true" data-et="edge" data-id="L_unlimited_unlimited_0" data-points="W3sieCI6MTI2MC4xMjUsInkiOjI2MS4yMjY2MzUyMzE4OTk1NH0seyJ4IjoxMjk1LjIyNSwieSI6MjQ2Ljk1MDAwMDAwMjk4MDIzfSx7IngiOjEyOTUuMjI1LCJ5IjozNDYuOTUwMDAwMDAyOTgwMjN9LHsieCI6MTI2MC4xMjUsInkiOjMzMi42NzMzNjQ3NzQwNjA5M31d" data-look="classic" marker-end="url(#my-svg_flowchart-v2-pointEnd)"/></g><g class="edgeLabels"><g class="edgeLabel"><g class="label" data-id="L_start_off_0" transform="translate(0, 0)"><foreignObject width="0" height="0"><div xmlns="http://www.w3.org/1999/xhtml" class="labelBkg" style="display: table-cell; white-space: nowrap; line-height: 1.5; max-width: 200px; text-align: center;"><span class="edgeLabel"></span></div></foreignObject></g></g><g class="edgeLabel" transform="translate(522.37071, 198.165)"><g class="label" data-id="L_off_timed_0" transform="translate(-81.8515625, -12)"><foreignObject width="163.703125" height="24"><div xmlns="http://www.w3.org/1999/xhtml" class="labelBkg" style="display: table-cell; white-space: nowrap; line-height: 1.5; max-width: 200px; text-align: center;"><span class="edgeLabel"><p>encender con duración</p></span></div></foreignObject></g></g><g class="edgeLabel" transform="translate(755.765625, 402.0000000037253)"><g class="label" data-id="L_off_unlimited_0" transform="translate(-69.171875, -12)"><foreignObject width="138.34375" height="24"><div xmlns="http://www.w3.org/1999/xhtml" class="labelBkg" style="display: table-cell; white-space: nowrap; line-height: 1.5; max-width: 200px; text-align: center;"><span class="edgeLabel"><p>encender sin límite</p></span></div></foreignObject></g></g><g class="edgeLabel" transform="translate(524.734375, 146.90000000223517)"><g class="label" data-id="L_timed_off_0" transform="translate(-91.03125, -12)"><foreignObject width="182.0625" height="24"><div xmlns="http://www.w3.org/1999/xhtml" class="labelBkg" style="display: table-cell; white-space: nowrap; line-height: 1.5; max-width: 200px; text-align: center;"><span class="edgeLabel"><p>apagar o vence el tiempo</p></span></div></foreignObject></g></g><g class="edgeLabel" transform="translate(755.765625, 338.0000000037253)"><g class="label" data-id="L_unlimited_off_0" transform="translate(-24.1953125, -12)"><foreignObject width="48.390625" height="24"><div xmlns="http://www.w3.org/1999/xhtml" class="labelBkg" style="display: table-cell; white-space: nowrap; line-height: 1.5; max-width: 200px; text-align: center;"><span class="edgeLabel"><p>apagar</p></span></div></foreignObject></g></g><g class="edgeLabel" transform="translate(938.29476, 335.24195)"><g class="label" data-id="L_timed_unlimited_0" transform="translate(-69.171875, -12)"><foreignObject width="138.34375" height="24"><div xmlns="http://www.w3.org/1999/xhtml" class="labelBkg" style="display: table-cell; white-space: nowrap; line-height: 1.5; max-width: 200px; text-align: center;"><span class="edgeLabel"><p>encender sin límite</p></span></div></foreignObject></g></g><g class="edgeLabel" transform="translate(977.6171875, 247.95000000298023)"><g class="label" data-id="L_unlimited_timed_0" transform="translate(-81.8515625, -12)"><foreignObject width="163.703125" height="24"><div xmlns="http://www.w3.org/1999/xhtml" class="labelBkg" style="display: table-cell; white-space: nowrap; line-height: 1.5; max-width: 200px; text-align: center;"><span class="edgeLabel"><p>encender con duración</p></span></div></foreignObject></g></g><g class="edgeLabel" transform="translate(988.9859375, 173.90000000223517)"><g class="label" data-id="L_timed_timed_0" transform="translate(-68.3203125, -24)"><foreignObject width="136.640625" height="48"><div xmlns="http://www.w3.org/1999/xhtml" class="labelBkg" style="display: table-cell; white-space: nowrap; line-height: 1.5; max-width: 200px; text-align: center;"><span class="edgeLabel"><p>encender de nuevo<br />reinicia el tiempo</p></span></div></foreignObject></g></g><g class="edgeLabel" transform="translate(481.5421875, 247.95000000298023)"><g class="label" data-id="L_off_off_0" transform="translate(-44.5390625, -12)"><foreignObject width="89.078125" height="24"><div xmlns="http://www.w3.org/1999/xhtml" class="labelBkg" style="display: table-cell; white-space: nowrap; line-height: 1.5; max-width: 200px; text-align: center;"><span class="edgeLabel"><p>apagar · 409</p></span></div></foreignObject></g></g><g class="edgeLabel" transform="translate(1388.740625, 296.95000000298023)"><g class="label" data-id="L_unlimited_unlimited_0" transform="translate(-89.515625, -12)"><foreignObject width="179.03125" height="24"><div xmlns="http://www.w3.org/1999/xhtml" class="labelBkg" style="display: table-cell; white-space: nowrap; line-height: 1.5; max-width: 200px; text-align: center;"><span class="edgeLabel"><p>encender sin límite · 409</p></span></div></foreignObject></g></g></g><g class="nodes"><g class="node default core" id="my-svg-flowchart-start-0" data-look="classic" transform="translate(138, 247.95000000298023)"><g class="basic label-container outer-path"><path d="M-48.890625 -19.5 C-16.703119897570247 -19.5, 15.484385204859507 -19.5, 48.890625 -19.5 C48.890625 -19.5, 48.890625 -19.5, 48.890625 -19.5 C49.170062453289376 -19.491038984765016, 49.449499906578744 -19.482077969530035, 50.1399942896239 -19.45993515863156 C50.49624182182763 -19.425568387650205, 50.852489354031356 -19.391201616668855, 51.384229652847864 -19.3399052695533 C51.63126814948245 -19.299966001229574, 51.87830664611703 -19.26002673290585, 52.61821825967676 -19.140403561325776 C53.05455830397382 -19.04081179359986, 53.49089834827088 -18.94122002587395, 53.83688938623539 -18.862249829261074 C54.19272535723556 -18.756639580889352, 54.54856132823572 -18.65102933251763, 55.035235251460605 -18.50658706670804 C55.46998561939703 -18.34659491251909, 55.904735987333446 -18.18660275833014, 56.2083315951478 -18.074876768247425 C56.49595603781837 -17.94755395955311, 56.78358048048893 -17.8202311508588, 57.35135791279238 -17.568892924097174 C57.702665308420805 -17.385616080820952, 58.05397270404923 -17.20233923754473, 58.45961726407678 -16.990714730406097 C58.790586674635485 -16.790079128733264, 59.121556085194186 -16.589443527060432, 59.5285555736057 -16.342718045390892 C59.922074305914634 -16.068216412883544, 60.31559303822357 -15.793714780376193, 60.55378034457871 -15.627565626425154 C60.75717213764812 -15.465366083935224, 60.96056393071753 -15.303166541445297, 61.531078708501866 -14.848196188198123 C61.77041789200723 -14.630834674306335, 62.009757075512596 -14.413473160414549, 62.45643473676799 -14.007812326905688 C62.7351662931668 -13.719999110637549, 63.0138978495656 -13.432185894369407, 63.32604594296865 -13.10986736009568 C63.6033116918056 -12.784175234643746, 63.880577440642554 -12.458483109191809, 64.13633890812658 -12.158051136245305 C64.29929075509247 -11.939710506529659, 64.46224260205837 -11.721369876814013, 64.88398396464063 -11.156274872382312 C65.10435439491096 -10.817726713740907, 65.32472482518128 -10.479178555099502, 65.56590887860425 -10.108655082055241 C65.75973627620415 -9.764494910464323, 65.95356367380404 -9.420334738873406, 66.1793114742735 -9.019496659696287 C66.3128427522431 -8.742216103880759, 66.44637403021271 -8.464935548065231, 66.72167114880834 -7.893275190886684 C66.84346120444044 -7.592451398824832, 66.96525126007256 -7.29162760676298, 67.19075922997033 -6.734618561215508 C67.3256387381595 -6.32838297268096, 67.46051824634866 -5.922147384146412, 67.58464813421489 -5.548287939305138 C67.69029740360648 -5.145401486431996, 67.79594667299807 -4.742515033558853, 67.90171928754556 -4.339158212148133 C67.97477989465783 -3.9640074359914186, 68.0478405017701 -3.5888566598347045, 68.14066977658177 -3.1121979531509023 C68.18600831192855 -2.7605612261078547, 68.2313468472753 -2.408924499064807, 68.30051770250937 -1.872449005199798 C68.3256873196968 -1.4804119009561876, 68.35085693688424 -1.0883747967125772, 68.38060621591342 -0.6250057626472757 C68.38060621591342 -0.2825316164127851, 68.38060621591342 0.05994252982170545, 68.38060621591342 0.625005762647271 C68.35014092452619 1.09952726714406, 68.31967563313894 1.5740487716408484, 68.30051770250937 1.8724490051997846 C68.26499887399896 2.1479260251405066, 68.22948004548854 2.4234030450812285, 68.14066977658177 3.1121979531508885 C68.05105523257107 3.5723496966052855, 67.96144068856036 4.032501440059683, 67.90171928754556 4.339158212148129 C67.79924096581986 4.7299524672738205, 67.69676264409416 5.120746722399512, 67.58464813421489 5.548287939305125 C67.4707297768554 5.891391881246509, 67.35681141949593 6.234495823187893, 67.19075922997033 6.734618561215495 C67.0781816652314 7.012687322659791, 66.96560410049247 7.290756084104087, 66.72167114880834 7.893275190886679 C66.5806358614574 8.18613798274264, 66.43960057410645 8.479000774598601, 66.1793114742735 9.019496659696284 C65.98260462761127 9.368769584673215, 65.78589778094904 9.718042509650147, 65.56590887860425 10.108655082055236 C65.30056524443984 10.51629415887415, 65.03522161027543 10.923933235693065, 64.88398396464065 11.156274872382301 C64.65027356936794 11.469425510592718, 64.41656317409523 11.782576148803136, 64.13633890812659 12.158051136245302 C63.9341526443914 12.39555062635297, 63.73196638065622 12.63305011646064, 63.32604594296866 13.10986736009567 C63.00668354304992 13.439635258152432, 62.68732114313118 13.769403156209194, 62.45643473676799 14.007812326905684 C62.215484478141 14.22663697659622, 61.97453421951402 14.445461626286754, 61.53107870850189 14.848196188198111 C61.18374281964511 15.125187316565205, 60.836406930788336 15.4021784449323, 60.55378034457871 15.627565626425152 C60.16220729234115 15.900710036741847, 59.77063424010358 16.17385444705854, 59.52855557360571 16.34271804539089 C59.10857048817476 16.59731547228544, 58.688585402743826 16.851912899179997, 58.45961726407678 16.990714730406093 C58.22131568074258 17.1150365137921, 57.98301409740838 17.239358297178104, 57.35135791279239 17.56889292409717 C57.00171912347483 17.723667644461873, 56.652080334157276 17.878442364826576, 56.208331595147804 18.07487676824742 C55.806587255508845 18.222722398918524, 55.40484291586989 18.370568029589624, 55.03523525146062 18.506587066708033 C54.69743679552508 18.606843875289425, 54.35963833958953 18.707100683870816, 53.83688938623541 18.86224982926107 C53.509550040032515 18.93696289894302, 53.18221069382962 19.01167596862497, 52.618218259676766 19.140403561325773 C52.244392437238865 19.200840821234983, 51.87056661480097 19.26127808114419, 51.38422965284788 19.3399052695533 C51.013319634087885 19.375686512978515, 50.64240961532789 19.411467756403727, 50.1399942896239 19.45993515863156 C49.75096188369274 19.47241067068413, 49.36192947776158 19.4848861827367, 48.89062500000001 19.5 C48.89062500000001 19.5, 48.890625 19.5, 48.890625 19.5 C24.558499254416258 19.5, 0.22637350883251628 19.5, -48.89062499999999 19.5 C-49.23734148289077 19.488881477236387, -49.58405796578155 19.477762954472773, -50.13999428962389 19.45993515863156 C-50.50390462340028 19.42482916639836, -50.86781495717667 19.389723174165162, -51.38422965284787 19.3399052695533 C-51.704526527281814 19.288122154834177, -52.02482340171576 19.236339040115055, -52.61821825967676 19.140403561325773 C-52.87661186744527 19.08142690652848, -53.13500547521379 19.02245025173119, -53.836889386235384 18.862249829261074 C-54.12895280767326 18.775566938850496, -54.42101622911114 18.68888404843992, -55.03523525146059 18.506587066708043 C-55.370993293207505 18.383025003631865, -55.706751334954426 18.259462940555682, -56.2083315951478 18.074876768247425 C-56.44507490039543 17.970077529754928, -56.68181820564307 17.86527829126243, -57.35135791279238 17.568892924097174 C-57.63110646827551 17.422948281889127, -57.91085502375864 17.27700363968108, -58.45961726407678 16.990714730406097 C-58.7864030878493 16.792615243628536, -59.11318891162182 16.59451575685097, -59.528555573605686 16.3427180453909 C-59.80850807193176 16.14743530150696, -60.088460570257844 15.952152557623018, -60.55378034457871 15.627565626425156 C-60.762486209810184 15.46112825279938, -60.97119207504166 15.294690879173602, -61.531078708501866 14.848196188198125 C-61.88591748454477 14.525941000315497, -62.24075626058768 14.20368581243287, -62.456434736767974 14.007812326905697 C-62.668579887315964 13.788755041524116, -62.88072503786396 13.569697756142535, -63.326045942968655 13.109867360095677 C-63.648151395716944 12.731503966978057, -63.970256848465226 12.353140573860438, -64.13633890812658 12.158051136245307 C-64.37241482163829 11.84173091909778, -64.60849073515 11.525410701950252, -64.88398396464063 11.156274872382316 C-65.14597551819449 10.753785491540887, -65.40796707174836 10.35129611069946, -65.56590887860425 10.108655082055249 C-65.71216975872687 9.848954078877423, -65.8584306388495 9.589253075699599, -66.1793114742735 9.019496659696289 C-66.33178732914872 8.702877284587242, -66.48426318402393 8.386257909478195, -66.72167114880834 7.893275190886686 C-66.8663543833261 7.535904804367785, -67.01103761784385 7.178534417848884, -67.19075922997033 6.73461856121551 C-67.27027293359757 6.495135954678486, -67.34978663722481 6.255653348141461, -67.58464813421489 5.5482879393051325 C-67.66902111587109 5.2265371927684505, -67.7533940975273 4.9047864462317685, -67.90171928754556 4.339158212148136 C-67.98252675125194 3.9242289646794055, -68.0633342149583 3.5092997172106752, -68.14066977658177 3.112197953150904 C-68.19298920538498 2.7064187949930516, -68.24530863418819 2.3006396368351987, -68.30051770250937 1.872449005199809 C-68.3212593553423 1.5493810199659204, -68.34200100817525 1.2263130347320317, -68.38060621591342 0.6250057626472781 C-68.38060621591342 0.16788841336973004, -68.38060621591342 -0.28922893590781806, -68.38060621591342 -0.6250057626472687 C-68.35038553517485 -1.0957172588448647, -68.32016485443629 -1.5664287550424607, -68.30051770250937 -1.8724490051997822 C-68.26012286331459 -2.1857434011311776, -68.21972802411983 -2.499037797062573, -68.14066977658177 -3.112197953150895 C-68.08188618393518 -3.414039277474418, -68.0231025912886 -3.7158806017979407, -67.90171928754556 -4.339158212148126 C-67.83717247601606 -4.585303179275169, -67.77262566448657 -4.831448146402211, -67.58464813421489 -5.548287939305123 C-67.43640873839007 -5.994761380789226, -67.28816934256525 -6.44123482227333, -67.19075922997033 -6.734618561215485 C-67.07394992046089 -7.023139814058145, -66.95714061095147 -7.311661066900804, -66.72167114880834 -7.893275190886676 C-66.55283082457275 -8.243875736766077, -66.38399050033718 -8.594476282645475, -66.1793114742735 -9.019496659696282 C-66.01879401095152 -9.30451166998016, -65.85827654762954 -9.58952668026404, -65.56590887860425 -10.108655082055243 C-65.2949137064081 -10.524976438941367, -65.02391853421193 -10.941297795827493, -64.88398396464063 -11.156274872382308 C-64.68248941149456 -11.426259217066628, -64.4809948583485 -11.696243561750945, -64.13633890812659 -12.158051136245302 C-63.89052202485326 -12.446801634715051, -63.64470514157994 -12.7355521331848, -63.32604594296866 -13.10986736009567 C-63.06437496328153 -13.380064130209606, -62.8027039835944 -13.650260900323541, -62.456434736767996 -14.007812326905677 C-62.21667478983893 -14.225555967006077, -61.97691484290988 -14.443299607106477, -61.53107870850189 -14.848196188198107 C-61.26288924152808 -15.062070151288275, -60.99469977455428 -15.275944114378442, -60.55378034457872 -15.627565626425149 C-60.33113961758217 -15.782870159616209, -60.108498890585615 -15.938174692807268, -59.528555573605715 -16.342718045390885 C-59.14302885590112 -16.57642660726988, -58.75750213819653 -16.81013516914888, -58.45961726407679 -16.99071473040609 C-58.02505903532421 -17.21742347999848, -57.59050080657164 -17.44413222959087, -57.35135791279239 -17.56889292409717 C-56.95462514254535 -17.744514752826042, -56.557892372298326 -17.920136581554917, -56.208331595147804 -18.07487676824742 C-55.8022361141301 -18.22432365916741, -55.3961406331124 -18.3737705500874, -55.03523525146062 -18.506587066708033 C-54.6845264627184 -18.610675594298723, -54.333817673976185 -18.714764121889417, -53.83688938623541 -18.862249829261067 C-53.522617279063596 -18.933980386905876, -53.20834517189178 -19.005710944550685, -52.618218259676766 -19.140403561325773 C-52.16039179888104 -19.214421393009996, -51.70256533808531 -19.28843922469422, -51.38422965284788 -19.3399052695533 C-51.132983728068986 -19.364142661749284, -50.881737803290086 -19.388380053945273, -50.1399942896239 -19.45993515863156 C-49.701998147621964 -19.47398084239779, -49.26400200562003 -19.48802652616402, -48.89062500000001 -19.5 C-48.89062500000001 -19.5, -48.890625 -19.5, -48.890625 -19.5" stroke="none" stroke-width="0" fill="#067A52" style="fill:#067A52 !important;stroke:#0B3D2B !important"/><path d="M-48.890625 -19.5 C-28.139886914729537 -19.5, -7.389148829459074 -19.5, 48.890625 -19.5 M-48.890625 -19.5 C-23.457189072305354 -19.5, 1.9762468553892916 -19.5, 48.890625 -19.5 M48.890625 -19.5 C48.890625 -19.5, 48.890625 -19.5, 48.890625 -19.5 M48.890625 -19.5 C48.890625 -19.5, 48.890625 -19.5, 48.890625 -19.5 M48.890625 -19.5 C49.33340617460097 -19.48580086955182, 49.77618734920193 -19.47160173910364, 50.1399942896239 -19.45993515863156 M48.890625 -19.5 C49.159546147569685 -19.4913762222207, 49.42846729513938 -19.4827524444414, 50.1399942896239 -19.45993515863156 M50.1399942896239 -19.45993515863156 C50.4480209825765 -19.43022019401872, 50.7560476755291 -19.40050522940588, 51.384229652847864 -19.3399052695533 M50.1399942896239 -19.45993515863156 C50.46788177949993 -19.42830424682562, 50.79576926937597 -19.396673335019678, 51.384229652847864 -19.3399052695533 M51.384229652847864 -19.3399052695533 C51.86807007288228 -19.261681702680633, 52.351910492916694 -19.183458135807967, 52.61821825967676 -19.140403561325776 M51.384229652847864 -19.3399052695533 C51.86049513678423 -19.262906359604457, 52.33676062072059 -19.18590744965562, 52.61821825967676 -19.140403561325776 M52.61821825967676 -19.140403561325776 C53.02475880977187 -19.047613333691586, 53.431299359866976 -18.954823106057393, 53.83688938623539 -18.862249829261074 M52.61821825967676 -19.140403561325776 C53.02931384594103 -19.04657367641036, 53.44040943220531 -18.95274379149495, 53.83688938623539 -18.862249829261074 M53.83688938623539 -18.862249829261074 C54.18208846730091 -18.759796553987783, 54.527287548366424 -18.65734327871449, 55.035235251460605 -18.50658706670804 M53.83688938623539 -18.862249829261074 C54.23289989323254 -18.74471598948589, 54.62891040022969 -18.627182149710706, 55.035235251460605 -18.50658706670804 M55.035235251460605 -18.50658706670804 C55.28356539307685 -18.415199279054598, 55.53189553469309 -18.323811491401155, 56.2083315951478 -18.074876768247425 M55.035235251460605 -18.50658706670804 C55.45978969175824 -18.350347108140284, 55.88434413205587 -18.19410714957253, 56.2083315951478 -18.074876768247425 M56.2083315951478 -18.074876768247425 C56.44550568836719 -17.969886832698702, 56.68267978158658 -17.86489689714998, 57.35135791279238 -17.568892924097174 M56.2083315951478 -18.074876768247425 C56.63284939350654 -17.88695533178707, 57.05736719186528 -17.69903389532672, 57.35135791279238 -17.568892924097174 M57.35135791279238 -17.568892924097174 C57.734264249582374 -17.36913093345705, 58.11717058637237 -17.169368942816924, 58.45961726407678 -16.990714730406097 M57.35135791279238 -17.568892924097174 C57.777219733352545 -17.34672108508845, 58.20308155391271 -17.12454924607973, 58.45961726407678 -16.990714730406097 M58.45961726407678 -16.990714730406097 C58.85285884195754 -16.752329374950758, 59.2461004198383 -16.51394401949542, 59.5285555736057 -16.342718045390892 M58.45961726407678 -16.990714730406097 C58.68507202916483 -16.854042726890462, 58.910526794252874 -16.717370723374824, 59.5285555736057 -16.342718045390892 M59.5285555736057 -16.342718045390892 C59.74108796566357 -16.19446464907029, 59.953620357721434 -16.046211252749693, 60.55378034457871 -15.627565626425154 M59.5285555736057 -16.342718045390892 C59.770411076578014 -16.174010116273386, 60.012266579550335 -16.005302187155877, 60.55378034457871 -15.627565626425154 M60.55378034457871 -15.627565626425154 C60.829712114177305 -15.407517383023045, 61.1056438837759 -15.187469139620935, 61.531078708501866 -14.848196188198123 M60.55378034457871 -15.627565626425154 C60.757215855074705 -15.465331220450894, 60.96065136557069 -15.303096814476634, 61.531078708501866 -14.848196188198123 M61.531078708501866 -14.848196188198123 C61.80168016376285 -14.602443106252261, 62.07228161902384 -14.356690024306399, 62.45643473676799 -14.007812326905688 M61.531078708501866 -14.848196188198123 C61.878628584185925 -14.53256058676767, 62.226178459869985 -14.216924985337213, 62.45643473676799 -14.007812326905688 M62.45643473676799 -14.007812326905688 C62.76159620490104 -13.69270805683583, 63.0667576730341 -13.377603786765972, 63.32604594296865 -13.10986736009568 M62.45643473676799 -14.007812326905688 C62.712345684002564 -13.743563263206472, 62.96825663123714 -13.479314199507256, 63.32604594296865 -13.10986736009568 M63.32604594296865 -13.10986736009568 C63.63390656367367 -12.748236757249986, 63.94176718437869 -12.38660615440429, 64.13633890812658 -12.158051136245305 M63.32604594296865 -13.10986736009568 C63.52832779003183 -12.872255592372099, 63.730609637095014 -12.634643824648519, 64.13633890812658 -12.158051136245305 M64.13633890812658 -12.158051136245305 C64.4262385635492 -11.769612008380896, 64.71613821897185 -11.381172880516488, 64.88398396464063 -11.156274872382312 M64.13633890812658 -12.158051136245305 C64.30916503419964 -11.926479872091386, 64.4819911602727 -11.694908607937467, 64.88398396464063 -11.156274872382312 M64.88398396464063 -11.156274872382312 C65.03032378617479 -10.931457608761566, 65.17666360770895 -10.70664034514082, 65.56590887860425 -10.108655082055241 M64.88398396464063 -11.156274872382312 C65.1361685234885 -10.768851668956112, 65.38835308233635 -10.381428465529913, 65.56590887860425 -10.108655082055241 M65.56590887860425 -10.108655082055241 C65.77855413512208 -9.731081896440683, 65.99119939163992 -9.353508710826123, 66.1793114742735 -9.019496659696287 M65.56590887860425 -10.108655082055241 C65.79274033226172 -9.705892866911029, 66.01957178591918 -9.303130651766816, 66.1793114742735 -9.019496659696287 M66.1793114742735 -9.019496659696287 C66.31067737734556 -8.746712551187134, 66.4420432804176 -8.473928442677979, 66.72167114880834 -7.893275190886684 M66.1793114742735 -9.019496659696287 C66.29582822636026 -8.777547130929037, 66.412344978447 -8.535597602161786, 66.72167114880834 -7.893275190886684 M66.72167114880834 -7.893275190886684 C66.84346249874572 -7.592448201865786, 66.9652538486831 -7.2916212128448885, 67.19075922997033 -6.734618561215508 M66.72167114880834 -7.893275190886684 C66.84312667643091 -7.593277689476057, 66.96458220405349 -7.293280188065429, 67.19075922997033 -6.734618561215508 M67.19075922997033 -6.734618561215508 C67.31612798565011 -6.357027843906603, 67.44149674132989 -5.979437126597697, 67.58464813421489 -5.548287939305138 M67.19075922997033 -6.734618561215508 C67.3252346938849 -6.32959988966033, 67.45971015779946 -5.9245812181051525, 67.58464813421489 -5.548287939305138 M67.58464813421489 -5.548287939305138 C67.67313275297208 -5.210857738507603, 67.76161737172927 -4.87342753771007, 67.90171928754556 -4.339158212148133 M67.58464813421489 -5.548287939305138 C67.69018849396153 -5.1458168061099085, 67.79572885370818 -4.743345672914679, 67.90171928754556 -4.339158212148133 M67.90171928754556 -4.339158212148133 C67.9947741462377 -3.861341179915333, 68.08782900492984 -3.3835241476825333, 68.14066977658177 -3.1121979531509023 M67.90171928754556 -4.339158212148133 C67.96285189194496 -4.0252552089377325, 68.02398449634435 -3.711352205727332, 68.14066977658177 -3.1121979531509023 M68.14066977658177 -3.1121979531509023 C68.19079061164975 -2.7234706538420665, 68.24091144671772 -2.334743354533231, 68.30051770250937 -1.872449005199798 M68.14066977658177 -3.1121979531509023 C68.17810484870739 -2.821858926135786, 68.215539920833 -2.5315198991206693, 68.30051770250937 -1.872449005199798 M68.30051770250937 -1.872449005199798 C68.31823333613977 -1.5965137116041213, 68.33594896977019 -1.3205784180084443, 68.38060621591342 -0.6250057626472757 M68.30051770250937 -1.872449005199798 C68.32347573817361 -1.5148590683363665, 68.34643377383786 -1.157269131472935, 68.38060621591342 -0.6250057626472757 M68.38060621591342 -0.6250057626472757 C68.38060621591342 -0.2828535718774609, 68.38060621591342 0.05929861889235388, 68.38060621591342 0.625005762647271 M68.38060621591342 -0.6250057626472757 C68.38060621591342 -0.1992841623742766, 68.38060621591342 0.2264374378987225, 68.38060621591342 0.625005762647271 M68.38060621591342 0.625005762647271 C68.35696593151893 0.9932222741856045, 68.33332564712443 1.3614387857239378, 68.30051770250937 1.8724490051997846 M68.38060621591342 0.625005762647271 C68.3594209435994 0.9549834793821441, 68.33823567128537 1.284961196117017, 68.30051770250937 1.8724490051997846 M68.30051770250937 1.8724490051997846 C68.2487512388273 2.27393947507342, 68.19698477514522 2.675429944947056, 68.14066977658177 3.1121979531508885 M68.30051770250937 1.8724490051997846 C68.2393001315664 2.3472403966567894, 68.17808256062341 2.8220317881137946, 68.14066977658177 3.1121979531508885 M68.14066977658177 3.1121979531508885 C68.07542718290378 3.4472048826603108, 68.0101845892258 3.7822118121697335, 67.90171928754556 4.339158212148129 M68.14066977658177 3.1121979531508885 C68.07881204666006 3.429824322663066, 68.01695431673834 3.7474506921752435, 67.90171928754556 4.339158212148129 M67.90171928754556 4.339158212148129 C67.83419884412706 4.596642926448145, 67.76667840070857 4.85412764074816, 67.58464813421489 5.548287939305125 M67.90171928754556 4.339158212148129 C67.829115550404 4.6160277285276266, 67.75651181326243 4.8928972449071235, 67.58464813421489 5.548287939305125 M67.58464813421489 5.548287939305125 C67.48404293899917 5.851294758033824, 67.38343774378345 6.154301576762524, 67.19075922997033 6.734618561215495 M67.58464813421489 5.548287939305125 C67.4784248756787 5.868215469638251, 67.37220161714251 6.188142999971377, 67.19075922997033 6.734618561215495 M67.19075922997033 6.734618561215495 C67.08203732373642 7.003163771608314, 66.9733154175025 7.271708982001133, 66.72167114880834 7.893275190886679 M67.19075922997033 6.734618561215495 C67.03792521502733 7.112121532969361, 66.88509120008433 7.489624504723228, 66.72167114880834 7.893275190886679 M66.72167114880834 7.893275190886679 C66.52867724002667 8.294031171879965, 66.33568333124498 8.694787152873252, 66.1793114742735 9.019496659696284 M66.72167114880834 7.893275190886679 C66.51970131723326 8.312669867614455, 66.31773148565817 8.732064544342231, 66.1793114742735 9.019496659696284 M66.1793114742735 9.019496659696284 C65.97199029459998 9.387616407752546, 65.76466911492643 9.755736155808808, 65.56590887860425 10.108655082055236 M66.1793114742735 9.019496659696284 C66.05638938035476 9.237757284660765, 65.933467286436 9.456017909625244, 65.56590887860425 10.108655082055236 M65.56590887860425 10.108655082055236 C65.32873484348126 10.473018090150042, 65.09156080835827 10.83738109824485, 64.88398396464065 11.156274872382301 M65.56590887860425 10.108655082055236 C65.29594606174155 10.523390463922949, 65.02598324487886 10.938125845790662, 64.88398396464065 11.156274872382301 M64.88398396464065 11.156274872382301 C64.64528755701578 11.476106312909554, 64.40659114939089 11.795937753436805, 64.13633890812659 12.158051136245302 M64.88398396464065 11.156274872382301 C64.58829393505772 11.552472574107556, 64.2926039054748 11.948670275832812, 64.13633890812659 12.158051136245302 M64.13633890812659 12.158051136245302 C63.93008502240741 12.400328686589614, 63.72383113668824 12.642606236933926, 63.32604594296866 13.10986736009567 M64.13633890812659 12.158051136245302 C63.954537642735424 12.371605247358819, 63.77273637734426 12.585159358472337, 63.32604594296866 13.10986736009567 M63.32604594296866 13.10986736009567 C63.03633432012311 13.409018396450293, 62.74662269727756 13.708169432804915, 62.45643473676799 14.007812326905684 M63.32604594296866 13.10986736009567 C63.1444294488961 13.297401301217064, 62.96281295482353 13.484935242338459, 62.45643473676799 14.007812326905684 M62.45643473676799 14.007812326905684 C62.1498796212323 14.286217571831306, 61.84332450569662 14.564622816756927, 61.53107870850189 14.848196188198111 M62.45643473676799 14.007812326905684 C62.143026168248575 14.292441696498699, 61.82961759972916 14.577071066091712, 61.53107870850189 14.848196188198111 M61.53107870850189 14.848196188198111 C61.2472377725997 15.074551781255575, 60.96339683669753 15.300907374313041, 60.55378034457871 15.627565626425152 M61.53107870850189 14.848196188198111 C61.14507342249938 15.156025131753053, 60.75906813649687 15.463854075307994, 60.55378034457871 15.627565626425152 M60.55378034457871 15.627565626425152 C60.152871524252724 15.907222264421447, 59.751962703926736 16.186878902417742, 59.52855557360571 16.34271804539089 M60.55378034457871 15.627565626425152 C60.2716147892022 15.824392103105785, 59.98944923382568 16.021218579786417, 59.52855557360571 16.34271804539089 M59.52855557360571 16.34271804539089 C59.227528094813515 16.52520267206854, 58.92650061602132 16.707687298746194, 58.45961726407678 16.990714730406093 M59.52855557360571 16.34271804539089 C59.13346333870505 16.582225280007357, 58.7383711038044 16.82173251462382, 58.45961726407678 16.990714730406093 M58.45961726407678 16.990714730406093 C58.179764690058576 17.136713639017266, 57.89991211604036 17.282712547628435, 57.35135791279239 17.56889292409717 M58.45961726407678 16.990714730406093 C58.13657865745805 17.159243764562984, 57.81354005083932 17.327772798719874, 57.35135791279239 17.56889292409717 M57.35135791279239 17.56889292409717 C56.94810240096407 17.747402177033823, 56.54484688913575 17.92591142997048, 56.208331595147804 18.07487676824742 M57.35135791279239 17.56889292409717 C56.985743635788275 17.730739518964707, 56.62012935878416 17.892586113832245, 56.208331595147804 18.07487676824742 M56.208331595147804 18.07487676824742 C55.852541388869824 18.205810853046334, 55.49675118259184 18.336744937845243, 55.03523525146062 18.506587066708033 M56.208331595147804 18.07487676824742 C55.73926138707023 18.24749894085744, 55.27019117899266 18.420121113467456, 55.03523525146062 18.506587066708033 M55.03523525146062 18.506587066708033 C54.68871651212376 18.609432009629234, 54.342197772786896 18.712276952550436, 53.83688938623541 18.86224982926107 M55.03523525146062 18.506587066708033 C54.65207041566515 18.620308378698862, 54.26890557986968 18.734029690689695, 53.83688938623541 18.86224982926107 M53.83688938623541 18.86224982926107 C53.54934189903199 18.92788066679254, 53.261794411828554 18.993511504324005, 52.618218259676766 19.140403561325773 M53.83688938623541 18.86224982926107 C53.43516787484772 18.95394014275746, 53.03344636346003 19.045630456253846, 52.618218259676766 19.140403561325773 M52.618218259676766 19.140403561325773 C52.2250280230474 19.203971509548182, 51.83183778641803 19.267539457770596, 51.38422965284788 19.3399052695533 M52.618218259676766 19.140403561325773 C52.15519645822386 19.21526133539698, 51.69217465677096 19.290119109468186, 51.38422965284788 19.3399052695533 M51.38422965284788 19.3399052695533 C51.111452038920135 19.36621979790583, 50.83867442499239 19.39253432625836, 50.1399942896239 19.45993515863156 M51.38422965284788 19.3399052695533 C51.11147279659266 19.36621779543813, 50.83871594033743 19.392530321322955, 50.1399942896239 19.45993515863156 M50.1399942896239 19.45993515863156 C49.68189860600259 19.474625395576137, 49.223802922381275 19.489315632520718, 48.89062500000001 19.5 M50.1399942896239 19.45993515863156 C49.72299806323277 19.473307415978006, 49.306001836841645 19.486679673324453, 48.89062500000001 19.5 M48.89062500000001 19.5 C48.89062500000001 19.5, 48.890625 19.5, 48.890625 19.5 M48.89062500000001 19.5 C48.89062500000001 19.5, 48.890625 19.5, 48.890625 19.5 M48.890625 19.5 C12.120340058778062 19.5, -24.649944882443876 19.5, -48.89062499999999 19.5 M48.890625 19.5 C15.886832173297499 19.5, -17.116960653405002 19.5, -48.89062499999999 19.5 M-48.89062499999999 19.5 C-49.2165857457954 19.489547073326445, -49.542546491590805 19.479094146652887, -50.13999428962389 19.45993515863156 M-48.89062499999999 19.5 C-49.262875666363584 19.488062645671686, -49.63512633272717 19.476125291343372, -50.13999428962389 19.45993515863156 M-50.13999428962389 19.45993515863156 C-50.548469668512865 19.42053003009366, -50.95694504740183 19.381124901555758, -51.38422965284787 19.3399052695533 M-50.13999428962389 19.45993515863156 C-50.597170664996945 19.415831903534357, -51.05434704036999 19.371728648437152, -51.38422965284787 19.3399052695533 M-51.38422965284787 19.3399052695533 C-51.757295335731534 19.279590903112247, -52.13036101861519 19.2192765366712, -52.61821825967676 19.140403561325773 M-51.38422965284787 19.3399052695533 C-51.68974487654009 19.290511937492685, -51.995260100232315 19.24111860543207, -52.61821825967676 19.140403561325773 M-52.61821825967676 19.140403561325773 C-52.91734014810618 19.0721309422445, -53.216462036535596 19.003858323163225, -53.836889386235384 18.862249829261074 M-52.61821825967676 19.140403561325773 C-53.06879116339362 19.03756323631538, -53.51936406711048 18.934722911304984, -53.836889386235384 18.862249829261074 M-53.836889386235384 18.862249829261074 C-54.22533168680836 18.74696219342626, -54.613773987381336 18.631674557591445, -55.03523525146059 18.506587066708043 M-53.836889386235384 18.862249829261074 C-54.26503124797709 18.73517957205863, -54.693173109718806 18.608109314856183, -55.03523525146059 18.506587066708043 M-55.03523525146059 18.506587066708043 C-55.283734347458065 18.41513710228051, -55.53223344345553 18.323687137852982, -56.2083315951478 18.074876768247425 M-55.03523525146059 18.506587066708043 C-55.28730782025922 18.413822031256863, -55.539380389057854 18.321056995805684, -56.2083315951478 18.074876768247425 M-56.2083315951478 18.074876768247425 C-56.61739928959423 17.893794634478002, -57.02646698404066 17.71271250070858, -57.35135791279238 17.568892924097174 M-56.2083315951478 18.074876768247425 C-56.635375542355604 17.885837080627134, -57.06241948956342 17.696797393006843, -57.35135791279238 17.568892924097174 M-57.35135791279238 17.568892924097174 C-57.77293520188617 17.348956322410086, -58.19451249097995 17.129019720723, -58.45961726407678 16.990714730406097 M-57.35135791279238 17.568892924097174 C-57.7491274930853 17.361376788841937, -58.14689707337821 17.1538606535867, -58.45961726407678 16.990714730406097 M-58.45961726407678 16.990714730406097 C-58.82066221772035 16.77184715777171, -59.18170717136392 16.552979585137322, -59.528555573605686 16.3427180453909 M-58.45961726407678 16.990714730406097 C-58.68441638746354 16.854440180742756, -58.90921551085031 16.718165631079415, -59.528555573605686 16.3427180453909 M-59.528555573605686 16.3427180453909 C-59.85415220461394 16.11559593045053, -60.17974883562219 15.888473815510162, -60.55378034457871 15.627565626425156 M-59.528555573605686 16.3427180453909 C-59.91609162806575 16.07238966996497, -60.30362768252582 15.802061294539044, -60.55378034457871 15.627565626425156 M-60.55378034457871 15.627565626425156 C-60.89806756850292 15.353005727213402, -61.24235479242713 15.078445828001648, -61.531078708501866 14.848196188198125 M-60.55378034457871 15.627565626425156 C-60.7676280104486 15.457027803619303, -60.98147567631849 15.286489980813451, -61.531078708501866 14.848196188198125 M-61.531078708501866 14.848196188198125 C-61.897117277008675 14.515769645130051, -62.263155845515485 14.183343102061976, -62.456434736767974 14.007812326905697 M-61.531078708501866 14.848196188198125 C-61.8149831171879 14.590361715928495, -62.098887525873934 14.332527243658864, -62.456434736767974 14.007812326905697 M-62.456434736767974 14.007812326905697 C-62.79784280751728 13.655280463733146, -63.13925087826658 13.302748600560594, -63.326045942968655 13.109867360095677 M-62.456434736767974 14.007812326905697 C-62.635605995331645 13.822803292204807, -62.814777253895315 13.637794257503916, -63.326045942968655 13.109867360095677 M-63.326045942968655 13.109867360095677 C-63.52251535074014 12.879083214301282, -63.71898475851163 12.648299068506889, -64.13633890812658 12.158051136245307 M-63.326045942968655 13.109867360095677 C-63.61932110586892 12.765369665923506, -63.91259626876919 12.420871971751335, -64.13633890812658 12.158051136245307 M-64.13633890812658 12.158051136245307 C-64.4093002123299 11.79230785589924, -64.68226151653322 11.426564575553172, -64.88398396464063 11.156274872382316 M-64.13633890812658 12.158051136245307 C-64.40234564406722 11.801626343797016, -64.66835238000787 11.445201551348728, -64.88398396464063 11.156274872382316 M-64.88398396464063 11.156274872382316 C-65.08812716982223 10.84265608909725, -65.29227037500384 10.529037305812183, -65.56590887860425 10.108655082055249 M-64.88398396464063 11.156274872382316 C-65.02988871743338 10.932125991180692, -65.17579347022613 10.70797710997907, -65.56590887860425 10.108655082055249 M-65.56590887860425 10.108655082055249 C-65.79454004889756 9.702697287783023, -66.02317121919087 9.296739493510797, -66.1793114742735 9.019496659696289 M-65.56590887860425 10.108655082055249 C-65.7128671743992 9.847715746730207, -65.85982547019415 9.586776411405166, -66.1793114742735 9.019496659696289 M-66.1793114742735 9.019496659696289 C-66.30022656519817 8.768413886222717, -66.42114165612284 8.517331112749146, -66.72167114880834 7.893275190886686 M-66.1793114742735 9.019496659696289 C-66.33020055704759 8.706172250806734, -66.48108963982166 8.39284784191718, -66.72167114880834 7.893275190886686 M-66.72167114880834 7.893275190886686 C-66.8990893938216 7.455048695555524, -67.07650763883485 7.016822200224362, -67.19075922997033 6.73461856121551 M-66.72167114880834 7.893275190886686 C-66.87013664082309 7.526562555225244, -67.01860213283784 7.1598499195638015, -67.19075922997033 6.73461856121551 M-67.19075922997033 6.73461856121551 C-67.30967185367233 6.376472684778746, -67.42858447737432 6.018326808341983, -67.58464813421489 5.5482879393051325 M-67.19075922997033 6.73461856121551 C-67.34211834364058 6.278749026640491, -67.49347745731083 5.822879492065472, -67.58464813421489 5.5482879393051325 M-67.58464813421489 5.5482879393051325 C-67.69976729273674 5.109288694902398, -67.81488645125859 4.670289450499663, -67.90171928754556 4.339158212148136 M-67.58464813421489 5.5482879393051325 C-67.69213713974082 5.138385775205075, -67.79962614526674 4.728483611105016, -67.90171928754556 4.339158212148136 M-67.90171928754556 4.339158212148136 C-67.96384068119711 4.020177985108614, -68.02596207484866 3.7011977580690925, -68.14066977658177 3.112197953150904 M-67.90171928754556 4.339158212148136 C-67.9919407839908 3.8758898962218895, -68.08216228043602 3.412621580295643, -68.14066977658177 3.112197953150904 M-68.14066977658177 3.112197953150904 C-68.19027449702791 2.727473536930651, -68.23987921747405 2.342749120710397, -68.30051770250937 1.872449005199809 M-68.14066977658177 3.112197953150904 C-68.19148147977845 2.7181124170632502, -68.24229318297512 2.3240268809755964, -68.30051770250937 1.872449005199809 M-68.30051770250937 1.872449005199809 C-68.33027383227973 1.4089732653107383, -68.36002996205009 0.9454975254216677, -68.38060621591342 0.6250057626472781 M-68.30051770250937 1.872449005199809 C-68.32120802422875 1.5501805434933695, -68.34189834594812 1.22791208178693, -68.38060621591342 0.6250057626472781 M-68.38060621591342 0.6250057626472781 C-68.38060621591342 0.2160449584577751, -68.38060621591342 -0.19291584573172793, -68.38060621591342 -0.6250057626472687 M-68.38060621591342 0.6250057626472781 C-68.38060621591342 0.2945853706276987, -68.38060621591342 -0.03583502139188077, -68.38060621591342 -0.6250057626472687 M-68.38060621591342 -0.6250057626472687 C-68.36287586281327 -0.90117032386552, -68.34514550971312 -1.1773348850837713, -68.30051770250937 -1.8724490051997822 M-68.38060621591342 -0.6250057626472687 C-68.36368746201416 -0.8885290112006279, -68.3467687081149 -1.152052259753987, -68.30051770250937 -1.8724490051997822 M-68.30051770250937 -1.8724490051997822 C-68.24325221438592 -2.31658882273556, -68.18598672626247 -2.7607286402713376, -68.14066977658177 -3.112197953150895 M-68.30051770250937 -1.8724490051997822 C-68.25048863444061 -2.260464577784075, -68.20045956637186 -2.6484801503683677, -68.14066977658177 -3.112197953150895 M-68.14066977658177 -3.112197953150895 C-68.05147067588025 -3.5702164830165826, -67.96227157517875 -4.02823501288227, -67.90171928754556 -4.339158212148126 M-68.14066977658177 -3.112197953150895 C-68.086293279086 -3.39140977531491, -68.03191678159021 -3.6706215974789247, -67.90171928754556 -4.339158212148126 M-67.90171928754556 -4.339158212148126 C-67.82728504490775 -4.6230082393309155, -67.75285080226995 -4.906858266513706, -67.58464813421489 -5.548287939305123 M-67.90171928754556 -4.339158212148126 C-67.80542336577919 -4.706376296759796, -67.70912744401282 -5.073594381371465, -67.58464813421489 -5.548287939305123 M-67.58464813421489 -5.548287939305123 C-67.44645765877817 -5.964495633658287, -67.30826718334146 -6.380703328011451, -67.19075922997033 -6.734618561215485 M-67.58464813421489 -5.548287939305123 C-67.45854176996592 -5.928100216102449, -67.33243540571695 -6.307912492899776, -67.19075922997033 -6.734618561215485 M-67.19075922997033 -6.734618561215485 C-67.01939125114386 -7.157900782091351, -66.84802327231738 -7.581183002967217, -66.72167114880834 -7.893275190886676 M-67.19075922997033 -6.734618561215485 C-67.04191372602361 -7.102269833695944, -66.89306822207688 -7.469921106176404, -66.72167114880834 -7.893275190886676 M-66.72167114880834 -7.893275190886676 C-66.57872930756736 -8.190096982689038, -66.43578746632636 -8.4869187744914, -66.1793114742735 -9.019496659696282 M-66.72167114880834 -7.893275190886676 C-66.54501599286327 -8.26010340202143, -66.36836083691821 -8.626931613156183, -66.1793114742735 -9.019496659696282 M-66.1793114742735 -9.019496659696282 C-66.01395350409096 -9.313106480065557, -65.84859553390842 -9.606716300434833, -65.56590887860425 -10.108655082055243 M-66.1793114742735 -9.019496659696282 C-65.94674311631164 -9.432445329357508, -65.71417475834977 -9.845393999018732, -65.56590887860425 -10.108655082055243 M-65.56590887860425 -10.108655082055243 C-65.32854650134902 -10.47330743424211, -65.09118412409379 -10.837959786428977, -64.88398396464063 -11.156274872382308 M-65.56590887860425 -10.108655082055243 C-65.31390722281782 -10.495797297262731, -65.0619055670314 -10.882939512470218, -64.88398396464063 -11.156274872382308 M-64.88398396464063 -11.156274872382308 C-64.70042613969049 -11.402225635353641, -64.51686831474034 -11.648176398324974, -64.13633890812659 -12.158051136245302 M-64.88398396464063 -11.156274872382308 C-64.6677083523518 -11.446064489735747, -64.45143274006296 -11.735854107089185, -64.13633890812659 -12.158051136245302 M-64.13633890812659 -12.158051136245302 C-63.97021360182527 -12.353191373824544, -63.804088295523954 -12.548331611403786, -63.32604594296866 -13.10986736009567 M-64.13633890812659 -12.158051136245302 C-63.93737423813106 -12.391766359032488, -63.73840956813554 -12.625481581819676, -63.32604594296866 -13.10986736009567 M-63.32604594296866 -13.10986736009567 C-63.13631855468289 -13.305776465409, -62.94659116639711 -13.501685570722328, -62.456434736767996 -14.007812326905677 M-63.32604594296866 -13.10986736009567 C-63.11919598430051 -13.323456925117979, -62.91234602563236 -13.537046490140288, -62.456434736767996 -14.007812326905677 M-62.456434736767996 -14.007812326905677 C-62.119288605314935 -14.313999523093532, -61.782142473861875 -14.620186719281389, -61.53107870850189 -14.848196188198107 M-62.456434736767996 -14.007812326905677 C-62.14180389361814 -14.293551733978443, -61.82717305046829 -14.579291141051208, -61.53107870850189 -14.848196188198107 M-61.53107870850189 -14.848196188198107 C-61.221490293126514 -15.09508471096624, -60.91190187775114 -15.341973233734373, -60.55378034457872 -15.627565626425149 M-61.53107870850189 -14.848196188198107 C-61.1797870853838 -15.128341909372091, -60.828495462265714 -15.408487630546073, -60.55378034457872 -15.627565626425149 M-60.55378034457872 -15.627565626425149 C-60.19346487525454 -15.878906100020421, -59.833149405930364 -16.130246573615693, -59.528555573605715 -16.342718045390885 M-60.55378034457872 -15.627565626425149 C-60.2383270046894 -15.847612220576945, -59.922873664800086 -16.06765881472874, -59.528555573605715 -16.342718045390885 M-59.528555573605715 -16.342718045390885 C-59.25981701465748 -16.505628939108373, -58.99107845570925 -16.66853983282586, -58.45961726407679 -16.99071473040609 M-59.528555573605715 -16.342718045390885 C-59.1993345962684 -16.542293736569977, -58.870113618931086 -16.741869427749073, -58.45961726407679 -16.99071473040609 M-58.45961726407679 -16.99071473040609 C-58.061600470707205 -17.19835983656508, -57.66358367733762 -17.40600494272407, -57.35135791279239 -17.56889292409717 M-58.45961726407679 -16.99071473040609 C-58.05925419134444 -17.19958388900577, -57.65889111861209 -17.40845304760545, -57.35135791279239 -17.56889292409717 M-57.35135791279239 -17.56889292409717 C-57.02758326741942 -17.712218355170172, -56.70380862204645 -17.855543786243178, -56.208331595147804 -18.07487676824742 M-57.35135791279239 -17.56889292409717 C-56.96351206400107 -17.740580776318755, -56.57566621520976 -17.91226862854034, -56.208331595147804 -18.07487676824742 M-56.208331595147804 -18.07487676824742 C-55.897891558327245 -18.189121571473628, -55.58745152150669 -18.303366374699834, -55.03523525146062 -18.506587066708033 M-56.208331595147804 -18.07487676824742 C-55.78499416177969 -18.23066885701522, -55.36165672841159 -18.38646094578302, -55.03523525146062 -18.506587066708033 M-55.03523525146062 -18.506587066708033 C-54.7795282865601 -18.582479551657258, -54.52382132165958 -18.658372036606483, -53.83688938623541 -18.862249829261067 M-55.03523525146062 -18.506587066708033 C-54.73786331009996 -18.594845497966702, -54.440491368739295 -18.683103929225375, -53.83688938623541 -18.862249829261067 M-53.83688938623541 -18.862249829261067 C-53.46016009451646 -18.948235831707542, -53.0834308027975 -19.034221834154017, -52.618218259676766 -19.140403561325773 M-53.83688938623541 -18.862249829261067 C-53.541833898233286 -18.929594318980556, -53.24677841023116 -18.99693880870004, -52.618218259676766 -19.140403561325773 M-52.618218259676766 -19.140403561325773 C-52.31657092556735 -19.18917156299457, -52.01492359145793 -19.237939564663368, -51.38422965284788 -19.3399052695533 M-52.618218259676766 -19.140403561325773 C-52.33507814624882 -19.186179459080428, -52.05193803282087 -19.231955356835087, -51.38422965284788 -19.3399052695533 M-51.38422965284788 -19.3399052695533 C-50.89784807884364 -19.386825915038063, -50.411466504839396 -19.433746560522827, -50.1399942896239 -19.45993515863156 M-51.38422965284788 -19.3399052695533 C-51.09295476588435 -19.368004207589365, -50.80167987892082 -19.396103145625435, -50.1399942896239 -19.45993515863156 M-50.1399942896239 -19.45993515863156 C-49.770144764264955 -19.471795513041393, -49.400295238906004 -19.483655867451223, -48.89062500000001 -19.5 M-50.1399942896239 -19.45993515863156 C-49.803011744108396 -19.47074153296951, -49.4660291985929 -19.481547907307455, -48.89062500000001 -19.5 M-48.89062500000001 -19.5 C-48.89062500000001 -19.5, -48.890625 -19.5, -48.890625 -19.5 M-48.89062500000001 -19.5 C-48.89062500000001 -19.5, -48.890625 -19.5, -48.890625 -19.5" stroke="#0B3D2B" stroke-width="1.3" fill="none" stroke-dasharray="0 0" style="fill:#067A52 !important;stroke:#0B3D2B !important"/></g><g class="label" style="color:#FFFFFF !important" transform="translate(-56.015625, -12)"><rect/><foreignObject width="112.03125" height="24"><div style="color: rgb(255, 255, 255) !important; display: table-cell; white-space: nowrap; line-height: 1.5; max-width: 200px; text-align: center;" xmlns="http://www.w3.org/1999/xhtml"><span style="color:#FFFFFF !important" class="nodeLabel"><p>Actuador nuevo</p></span></div></foreignObject></g></g><g class="node default muted" id="my-svg-flowchart-off-1" data-look="classic" transform="translate(363.3515625, 247.95000000298023)"><rect class="basic label-container" style="fill:#F2F7F4 !important;stroke:#5B6B63 !important" rx="5" ry="5" x="-45.3515625" y="-27" width="90.703125" height="54"/><g class="label" style="color:#17261F !important" transform="translate(-30.3515625, -12)"><rect/><foreignObject width="60.703125" height="24"><div style="color: rgb(23, 38, 31) !important; display: table-cell; white-space: nowrap; line-height: 1.5; max-width: 200px; text-align: center;" xmlns="http://www.w3.org/1999/xhtml"><span style="color:#17261F !important" class="nodeLabel"><p>Apagado</p></span></div></foreignObject></g></g><g class="node default leaf" id="my-svg-flowchart-timed-3" data-look="classic" transform="translate(755.765625, 173.90000000223517)"><rect class="basic label-container" style="fill:#DDF5EA !important;stroke:#067A52 !important" rx="5" ry="5" x="-115" y="-51" width="230" height="102"/><g class="label" style="color:#17261F !important" transform="translate(-100, -36)"><rect/><foreignObject width="200" height="72"><div style="color: rgb(23, 38, 31) !important; display: table; white-space: break-spaces; line-height: 1.5; max-width: 200px; text-align: center; width: 200px;" xmlns="http://www.w3.org/1999/xhtml"><span style="color:#17261F !important" class="nodeLabel"><p>Encendido por un tiempo<br />se apaga solo en runningUntil</p></span></div></foreignObject></g></g><g class="node default leaf" id="my-svg-flowchart-unlimited-4" data-look="classic" transform="translate(1172.296875, 296.95000000298023)"><rect class="basic label-container" style="fill:#DDF5EA !important;stroke:#067A52 !important" rx="5" ry="5" x="-87.828125" y="-39" width="175.65625" height="78"/><g class="label" style="color:#17261F !important" transform="translate(-72.828125, -24)"><rect/><foreignObject width="145.65625" height="48"><div style="color: rgb(23, 38, 31) !important; display: table-cell; white-space: nowrap; line-height: 1.5; max-width: 200px; text-align: center;" xmlns="http://www.w3.org/1999/xhtml"><span style="color:#17261F !important" class="nodeLabel"><p>Encendido sin límite<br />hasta que se apague</p></span></div></foreignObject></g></g><g class="node default sun" id="my-svg-flowchart-rule-23" data-look="classic" transform="translate(138, 416.45000000298023)"><rect class="basic label-container" style="fill:#FDF4DD !important;stroke:#C98D12 !important" x="-130" y="-99" width="260" height="198"/><g class="label" style="color:#17261F !important" transform="translate(-100, -84)"><rect/><foreignObject width="200" height="168"><div style="color: rgb(23, 38, 31) !important; display: table; white-space: break-spaces; line-height: 1.5; max-width: 200px; text-align: center; width: 200px;" xmlns="http://www.w3.org/1999/xhtml"><span style="color:#17261F !important" class="nodeLabel"><p>Cada cambio se aplica al llegar la confirmación del dispositivo.<br />Mientras la espera, cualquier otra orden al mismo actuador responde 409.</p></span></div></foreignObject></g></g><g class="label edgeLabel" id="timed---timed---1" transform="translate(1172.296875, 52.05000000074506)"><rect width="0.1" height="0.1"/><g class="label" style="" transform="translate(0, 0)"><rect/><foreignObject width="0" height="0"><div xmlns="http://www.w3.org/1999/xhtml" style="display: table-cell; white-space: nowrap; line-height: 1.5; max-width: 10px; text-align: center;"><span class="nodeLabel"></span></div></foreignObject></g></g><g class="label edgeLabel" id="timed---timed---2" transform="translate(1446.815625000745, 8.050000000745058)"><rect width="0.1" height="0.1"/><g class="label" style="" transform="translate(0, 0)"><rect/><foreignObject width="0" height="0"><div xmlns="http://www.w3.org/1999/xhtml" style="display: table-cell; white-space: nowrap; line-height: 1.5; max-width: 10px; text-align: center;"><span class="nodeLabel"></span></div></foreignObject></g></g><g class="label edgeLabel" id="off---off---1" transform="translate(755.765625, 274.95000000298023)"><rect width="0.1" height="0.1"/><g class="label" style="" transform="translate(0, 0)"><rect/><foreignObject width="0" height="0"><div xmlns="http://www.w3.org/1999/xhtml" style="display: table-cell; white-space: nowrap; line-height: 1.5; max-width: 10px; text-align: center;"><span class="nodeLabel"></span></div></foreignObject></g></g><g class="label edgeLabel" id="off---off---2" transform="translate(1172.296875, 102.15000000223517)"><rect width="0.1" height="0.1"/><g class="label" style="" transform="translate(0, 0)"><rect/><foreignObject width="0" height="0"><div xmlns="http://www.w3.org/1999/xhtml" style="display: table-cell; white-space: nowrap; line-height: 1.5; max-width: 10px; text-align: center;"><span class="nodeLabel"></span></div></foreignObject></g></g><g class="label edgeLabel" id="unlimited---unlimited---1" transform="translate(1446.815625000745, 314.47500000335276)"><rect width="0.1" height="0.1"/><g class="label" style="" transform="translate(0, 0)"><rect/><foreignObject width="0" height="0"><div xmlns="http://www.w3.org/1999/xhtml" style="display: table-cell; white-space: nowrap; line-height: 1.5; max-width: 10px; text-align: center;"><span class="nodeLabel"></span></div></foreignObject></g></g><g class="label edgeLabel" id="unlimited---unlimited---2" transform="translate(1675.9468750022352, 296.95000000298023)"><rect width="0.1" height="0.1"/><g class="label" style="" transform="translate(0, 0)"><rect/><foreignObject width="0" height="0"><div xmlns="http://www.w3.org/1999/xhtml" style="display: table-cell; white-space: nowrap; line-height: 1.5; max-width: 10px; text-align: center;"><span class="nodeLabel"></span></div></foreignObject></g></g></g></g></g><defs><filter id="my-svg-drop-shadow" height="130%" width="130%"><feDropShadow dx="4" dy="4" stdDeviation="0" flood-opacity="0.06" flood-color="#000000"/></filter></defs><defs><filter id="my-svg-drop-shadow-small" height="150%" width="150%"><feDropShadow dx="2" dy="2" stdDeviation="0" flood-opacity="0.06" flood-color="#000000"/></filter></defs></svg>